# xmcd
#
# Track frame offsets:
#	150
#	14180
#	31932
#	47987
#	63510
#	75927
#	87550
#	106217
#	115160
#	127252
#	144160
#	158282
#	167805
#
# Disc length: 2403 seconds
#
# Revision: 2
# Processed by: cddbd v1.5.2PL0 Copyright (c) Steve Scherf et al.
# Submitted via: EasyCDDAExtractor 11.1.0.1
#
DISCID=a609610d
DTITLE=Candye Kane - The Toughest Girl Alive
DYEAR=2000
DGENRE=Blues
TTITLE0=I'm The Toughest Girl Alive
TTITLE1=Who Do You Love?
TTITLE2=One More Day (Without Your Love)
TTITLE3=For Your Love
TTITLE4=Didn't We
TTITLE5=Who Walks In When I Walk Out
TTITLE6=To See A Grown Man Cry
TTITLE7=(Hey Mister!) She Was My Baby Last Night
TTITLE8=Je N'en Peux Plus Sans Ma Cadillac
TTITLE9=Let's Commit Adultery
TTITLE10=Highway Of Tears
TTITLE11=Get Happy
TTITLE12=Scream In The Night
EXTD=\n\nYEAR: 2000  ID3G:   0
EXTT0=
EXTT1=
EXTT2=
EXTT3=
EXTT4=
EXTT5=
EXTT6=
EXTT7=
EXTT8=
EXTT9=
EXTT10=
EXTT11=
EXTT12=
PLAYORDER=
